<svg xmlns="http://www.w3.org/2000/svg" width="1200" height="1200" viewBox="0 0 1200 1200">
  <rect width="100%" height="100%" fill="#FFF6EE"/>
  <defs>
    <symbol id="tile">
      <rect x="0" y="0" width="160" height="160" rx="28" fill="#10B5A4"/>
      <rect x="24" y="24" width="112" height="112" rx="22" fill="#0E6F6A" opacity="0.25"/>
      <path d="M110 50 q40 0 68 20 l-18-10 10 30" fill="none" stroke="#FFF6EE" stroke-width="8" stroke-linecap="round" stroke-linejoin="round" opacity="0.7"/>
    </symbol>
  </defs>
  <g opacity="0.25">
  <use href="#tile" x="60" y="60"/>
<use href="#tile" x="200" y="60"/>
<use href="#tile" x="340" y="60"/>
<use href="#tile" x="480" y="60"/>
<use href="#tile" x="620" y="60"/>
<use href="#tile" x="760" y="60"/>
<use href="#tile" x="900" y="60"/>
<use href="#tile" x="1040" y="60"/>
<use href="#tile" x="80" y="200"/>
<use href="#tile" x="220" y="200"/>
<use href="#tile" x="360" y="200"/>
<use href="#tile" x="500" y="200"/>
<use href="#tile" x="640" y="200"/>
<use href="#tile" x="780" y="200"/>
<use href="#tile" x="920" y="200"/>
<use href="#tile" x="1060" y="200"/>
<use href="#tile" x="60" y="340"/>
<use href="#tile" x="200" y="340"/>
<use href="#tile" x="340" y="340"/>
<use href="#tile" x="480" y="340"/>
<use href="#tile" x="620" y="340"/>
<use href="#tile" x="760" y="340"/>
<use href="#tile" x="900" y="340"/>
<use href="#tile" x="1040" y="340"/>
<use href="#tile" x="80" y="480"/>
<use href="#tile" x="220" y="480"/>
<use href="#tile" x="360" y="480"/>
<use href="#tile" x="500" y="480"/>
<use href="#tile" x="640" y="480"/>
<use href="#tile" x="780" y="480"/>
<use href="#tile" x="920" y="480"/>
<use href="#tile" x="1060" y="480"/>
<use href="#tile" x="60" y="620"/>
<use href="#tile" x="200" y="620"/>
<use href="#tile" x="340" y="620"/>
<use href="#tile" x="480" y="620"/>
<use href="#tile" x="620" y="620"/>
<use href="#tile" x="760" y="620"/>
<use href="#tile" x="900" y="620"/>
<use href="#tile" x="1040" y="620"/>
<use href="#tile" x="80" y="760"/>
<use href="#tile" x="220" y="760"/>
<use href="#tile" x="360" y="760"/>
<use href="#tile" x="500" y="760"/>
<use href="#tile" x="640" y="760"/>
<use href="#tile" x="780" y="760"/>
<use href="#tile" x="920" y="760"/>
<use href="#tile" x="1060" y="760"/>
<use href="#tile" x="60" y="900"/>
<use href="#tile" x="200" y="900"/>
<use href="#tile" x="340" y="900"/>
<use href="#tile" x="480" y="900"/>
<use href="#tile" x="620" y="900"/>
<use href="#tile" x="760" y="900"/>
<use href="#tile" x="900" y="900"/>
<use href="#tile" x="1040" y="900"/>
<use href="#tile" x="80" y="1040"/>
<use href="#tile" x="220" y="1040"/>
<use href="#tile" x="360" y="1040"/>
<use href="#tile" x="500" y="1040"/>
<use href="#tile" x="640" y="1040"/>
<use href="#tile" x="780" y="1040"/>
<use href="#tile" x="920" y="1040"/>
<use href="#tile" x="1060" y="1040"/>
</g></svg>